<svg xmlns="http://www.w3.org/2000/svg" width="100%" height="100%" viewBox="0 0 288 126"><style type="text/css">.st0{fill:#3D3D3D;}.st1{fill:#8E8E8E;}</style><g><path class="st0" d="M107.6,51.9c-2.4,0-4.4,2-4.4,4.4v4.4h4.4c2.4,0,4.4-2,4.4-4.4v-4.4H107.6z"/><path class="st0" d="M40.6,88.8"/><path class="st0" d="M44.4,67.2h8.9v38.3h-8.9v-4c-3.6,3.4-7.6,5.1-11.8,5.1c-5.3,0-9.7-1.9-13.1-5.7c-3.4-3.9-5.1-8.8-5.1-14.6	c0-5.7,1.7-10.5,5.1-14.3c3.4-3.8,7.7-5.7,12.9-5.7c4.5,0,8.5,1.8,12,5.5V67.2z M23.4,86.2c0,3.7,1,6.7,2.9,9	c2,2.3,4.6,3.5,7.6,3.5c3.3,0,5.9-1.1,7.9-3.4c2-2.3,3-5.3,3-8.9c0-3.6-1-6.6-3-8.9c-2-2.3-4.6-3.4-7.9-3.4c-3,0-5.6,1.2-7.6,3.5	C24.4,79.9,23.4,82.8,23.4,86.2z"/><path class="st0" d="M191.9,67.2h8.9v38.3h-8.9v-4c-3.6,3.4-7.6,5.1-11.8,5.1c-5.3,0-9.7-1.9-13.1-5.7c-3.4-3.9-5.1-8.8-5.1-14.6	c0-5.7,1.7-10.5,5.1-14.3c3.4-3.8,7.7-5.7,12.9-5.7c4.5,0,8.5,1.8,12,5.5V67.2z M170.9,86.2c0,3.7,1,6.7,2.9,9	c2,2.3,4.6,3.5,7.6,3.5c3.3,0,5.9-1.1,7.9-3.4c2-2.3,3-5.3,3-8.9c0-3.6-1-6.6-3-8.9c-2-2.3-4.6-3.4-7.9-3.4c-3,0-5.6,1.2-7.6,3.5	C171.9,79.9,170.9,82.8,170.9,86.2z"/><path class="st0" d="M245.3,104.6c0,1.8-0.1,3.4-0.2,4.8c-0.1,1.4-0.3,2.6-0.5,3.6c-0.6,2.9-1.9,5.4-3.7,7.4c-3.5,4-8.2,6-14.3,6	c-5.1,0-9.3-1.4-12.6-4.1c-3.4-2.8-5.4-6.7-5.9-11.8h8.9c0.3,1.9,0.9,3.3,1.7,4.4c1.8,2.4,4.5,3.6,8,3.6c6.5,0,9.7-4,9.7-11.9v-5.3	c-3.5,3.6-7.6,5.4-12.1,5.4c-5.2,0-9.5-1.9-12.8-5.7c-3.4-3.8-5-8.6-5-14.3c0-5.6,1.6-10.3,4.7-14.2c3.4-4.1,7.8-6.2,13.3-6.2	c4.8,0,8.8,1.8,12,5.4v-4.3h8.8V104.6z M236.8,86.4c0-3.7-1-6.7-3-8.9c-2-2.3-4.6-3.4-7.7-3.4c-3.4,0-6,1.2-7.9,3.7	c-1.8,2.2-2.6,5.1-2.6,8.6c0,3.5,0.9,6.3,2.6,8.6c1.9,2.4,4.6,3.7,7.9,3.7c3.4,0,6.1-1.2,8-3.7C235.9,92.8,236.8,89.9,236.8,86.4z"	/><path class="st0" d="M287.6,88.4h-27.4c0.2,3.1,1.3,5.6,3.1,7.5c1.8,1.8,4.1,2.8,7,2.8c2.2,0,4-0.5,5.5-1.6c1.4-1,3-3,4.8-5.8	l7.5,4.2c-1.2,2-2.4,3.6-3.7,5.1c-1.3,1.4-2.7,2.6-4.1,3.5c-1.5,0.9-3.1,1.6-4.8,2c-1.7,0.4-3.6,0.6-5.5,0.6	c-5.7,0-10.3-1.8-13.8-5.5c-3.5-3.7-5.2-8.6-5.2-14.7c0-6.1,1.7-11,5-14.7c3.4-3.7,7.9-5.5,13.4-5.5c5.6,0,10.1,1.8,13.4,5.4	c3.2,3.6,4.9,8.5,4.9,14.8L287.6,88.4z M278.6,81.2c-1.2-4.7-4.2-7.1-8.9-7.1c-1.1,0-2.1,0.2-3,0.5c-0.9,0.3-1.8,0.8-2.6,1.4	c-0.8,0.6-1.4,1.4-2,2.2c-0.6,0.9-1,1.8-1.3,2.9H278.6z"/><path class="st0" d="M4.4,46.4c-2.4,0-4.4,2-4.4,4.4v54.7h8.8V46.4H4.4z"/><path class="st0" d="M93.2,46.4c-2.4,0-4.4,2-4.4,4.4c0,0,0,0,0,0s0,0,0,0v20.8c-3.5-3.7-7.5-5.5-12-5.5c-5.2,0-9.4,1.9-12.9,5.8	c-3.4,3.8-5.1,8.6-5.1,14.3c0,5.8,1.7,10.7,5.1,14.6c3.5,3.8,7.8,5.7,13,5.7c4.4,0,8.3-1.7,11.8-5.1v4h8.9V50.8v-4.4H93.2z	 M86.3,95.3c-2,2.3-4.7,3.4-7.9,3.4c-3.1,0-5.6-1.2-7.6-3.5c-2-2.3-2.9-5.3-2.9-9c0-3.4,1-6.3,3-8.6c2-2.3,4.6-3.5,7.6-3.5	c3.2,0,5.8,1.1,7.9,3.4c2,2.3,3,5.3,3,8.9C89.3,90,88.3,93,86.3,95.3z"/><rect x="103.2" y="67.2" class="st0" width="8.8" height="38.3"/><path class="st0" d="M151.2,72c-3.4-3.9-7.7-5.8-13-5.8c-4.4,0-8.4,1.7-11.9,5.2l0,0v-4.2h-8.8v54.7v0.1v4.4h4.4c0,0,0,0,0,0	s0,0,0,0c2.4,0,4.4-2,4.4-4.4l0-20.7c0,0,0,0,0,0c3.5,3.6,7.5,5.4,12,5.4c5.2,0,9.5-1.9,12.9-5.7c3.4-3.8,5.1-8.6,5.1-14.3	C156.4,80.7,154.7,75.8,151.2,72z M144.3,95.2c-2,2.3-4.5,3.5-7.6,3.5c-3.2,0-5.9-1.1-7.9-3.4c-1.2-1.4-2-3-2.5-4.8	c-0.3-1.3-0.5-2.6-0.5-4.1c0-1.5,0.2-2.9,0.5-4.2c0.5-1.8,1.3-3.4,2.5-4.7c2-2.3,4.7-3.4,7.9-3.4c3.1,0,5.6,1.2,7.6,3.5	c2,2.3,3,5.3,3,9C147.3,90,146.3,92.9,144.3,95.2z"/></g><g><path class="st1" d="M3.7,17.6v9.9H0V3.1h4.2c2.1,0,3.6,0.1,4.6,0.4c1.1,0.3,2,0.8,2.8,1.6c1.4,1.4,2.1,3.1,2.1,5.2	c0,2.2-0.8,4-2.3,5.3c-1.5,1.3-3.5,2-6.1,2H3.7z M3.7,14.2h1.4c3.4,0,5.1-1.3,5.1-3.9c0-2.5-1.7-3.8-5.3-3.8H3.7V14.2z"/><path class="st1" d="M15.2,19.8c0-2.2,0.8-4.1,2.4-5.7c1.6-1.6,3.5-2.3,5.8-2.3c2.3,0,4.3,0.8,5.9,2.4c1.6,1.6,2.4,3.5,2.4,5.8	c0,2.3-0.8,4.3-2.4,5.8c-1.6,1.6-3.6,2.3-5.9,2.3c-2.3,0-4.3-0.8-5.8-2.4C16,24.1,15.2,22.1,15.2,19.8z M18.8,19.8	c0,1.5,0.4,2.8,1.2,3.7c0.8,0.9,2,1.4,3.3,1.4c1.4,0,2.5-0.5,3.3-1.3c0.8-0.9,1.3-2.1,1.3-3.6c0-1.5-0.4-2.7-1.3-3.6	c-0.8-0.9-2-1.4-3.3-1.4c-1.4,0-2.5,0.5-3.3,1.4C19.3,17.2,18.8,18.4,18.8,19.8z"/><path class="st1" d="M36.8,12.1l4,8.8l4.4-10.2L49.6,21l4-8.8h4l-8.1,16.6l-4.3-9.9l-4.3,9.9l-8.1-16.6H36.8z"/><path class="st1" d="M73.6,20.7H62.5c0.1,1.3,0.5,2.3,1.2,3c0.7,0.7,1.7,1.1,2.8,1.1c0.9,0,1.6-0.2,2.2-0.6c0.6-0.4,1.2-1.2,2-2.3	l3,1.7c-0.5,0.8-1,1.5-1.5,2c-0.5,0.6-1.1,1-1.7,1.4c-0.6,0.4-1.2,0.6-1.9,0.8C68,28,67.2,28,66.4,28c-2.3,0-4.2-0.7-5.6-2.2	c-1.4-1.5-2.1-3.5-2.1-5.9c0-2.4,0.7-4.4,2-5.9c1.4-1.5,3.2-2.2,5.4-2.2c2.3,0,4.1,0.7,5.4,2.2c1.3,1.4,2,3.4,2,6L73.6,20.7z	 M69.9,17.8c-0.5-1.9-1.7-2.9-3.6-2.9c-0.4,0-0.8,0.1-1.2,0.2c-0.4,0.1-0.7,0.3-1,0.6c-0.3,0.2-0.6,0.5-0.8,0.9	c-0.2,0.3-0.4,0.7-0.5,1.2H69.9z"/><path class="st1" d="M77.5,12.1H81v1.4c0.7-0.7,1.2-1.2,1.7-1.4c0.5-0.3,1.1-0.4,1.8-0.4c0.9,0,1.9,0.3,3,0.9l-1.6,3.3	c-0.7-0.5-1.3-0.7-2-0.7c-1.9,0-2.9,1.5-2.9,4.4v8h-3.6V12.1z"/><path class="st1" d="M103.5,20.7H92.4c0.1,1.3,0.5,2.3,1.2,3c0.7,0.7,1.7,1.1,2.8,1.1c0.9,0,1.6-0.2,2.2-0.6c0.6-0.4,1.2-1.2,2-2.3	l3,1.7c-0.5,0.8-1,1.5-1.5,2c-0.5,0.6-1.1,1-1.7,1.4c-0.6,0.4-1.2,0.6-1.9,0.8C97.9,28,97.1,28,96.3,28c-2.3,0-4.2-0.7-5.6-2.2	c-1.4-1.5-2.1-3.5-2.1-5.9c0-2.4,0.7-4.4,2-5.9c1.4-1.5,3.2-2.2,5.4-2.2c2.3,0,4.1,0.7,5.4,2.2c1.3,1.4,2,3.4,2,6L103.5,20.7z	 M99.8,17.8c-0.5-1.9-1.7-2.9-3.6-2.9c-0.4,0-0.8,0.1-1.2,0.2c-0.4,0.1-0.7,0.3-1,0.6c-0.3,0.2-0.6,0.5-0.8,0.9	c-0.2,0.3-0.4,0.7-0.5,1.2H99.8z"/><path class="st1" d="M118.8,0.8h3.6v26.8h-3.6V26c-1.4,1.4-3,2.1-4.8,2.1c-2.1,0-3.9-0.8-5.3-2.3c-1.4-1.6-2.1-3.5-2.1-5.9	c0-2.3,0.7-4.2,2.1-5.8c1.4-1.6,3.1-2.3,5.2-2.3c1.8,0,3.4,0.7,4.9,2.2V0.8z M110.3,19.8c0,1.5,0.4,2.7,1.2,3.6	c0.8,0.9,1.8,1.4,3.1,1.4c1.3,0,2.4-0.5,3.2-1.4c0.8-0.9,1.2-2.1,1.2-3.6c0-1.4-0.4-2.6-1.2-3.6c-0.8-0.9-1.9-1.4-3.2-1.4	c-1.2,0-2.3,0.5-3.1,1.4C110.7,17.3,110.3,18.4,110.3,19.8z"/><path class="st1" d="M140.4,0.8v13.1c1.4-1.5,3-2.2,4.9-2.2c2.1,0,3.8,0.8,5.2,2.3c1.4,1.5,2.1,3.5,2.1,5.8c0,2.4-0.7,4.3-2.1,5.9	c-1.4,1.5-3.1,2.3-5.3,2.3c-1.8,0-3.4-0.7-4.8-2.1v1.6h-3.6V0.8H140.4z M148.9,20c0-1.5-0.4-2.7-1.2-3.6c-0.8-1-1.8-1.4-3.1-1.4	c-1.3,0-2.4,0.5-3.2,1.4c-0.8,0.9-1.2,2.1-1.2,3.6c0,1.5,0.4,2.7,1.2,3.6c0.8,0.9,1.9,1.4,3.2,1.4c1.2,0,2.3-0.5,3.1-1.4	C148.5,22.5,148.9,21.4,148.9,20z"/><path class="st1" d="M160.6,24.7l-6.9-12.6h4.1l4.7,8.9l4.4-8.9h4L158.7,36h-4.1L160.6,24.7z"/></g><g><circle class="st1" cx="279" cy="18.4" r="9"><animate attributeName="fill-opacity" from="1" to="1" begin="0s" dur="0.8s" values="1;.5;1" calcMode="linear" repeatCount="indefinite" /></circle><circle class="st1" cx="252" cy="18.4" r="9"><animate attributeName="fill-opacity" from="0.5" to="0.5" begin="0s" dur="0.8s" values=".5;1;.5" calcMode="linear" repeatCount="indefinite" /></circle><circle class="st1" cx="225" cy="18.4" r="9">	<animate attributeName="fill-opacity" from="1" to="1" begin="0s" dur="0.8s" values="1;.5;1" calcMode="linear" repeatCount="indefinite" /></circle></g></svg>